G04 Layer: TopSilkLayer*
G04 EasyEDA v6.4.19.5, 2021-04-22T06:46:41+01:00*
G04 b9d1eac69de14e0994291468f16b4c20,70d0fae58ee04a8b949032da60bbe542,10*
G04 Gerber Generator version 0.2*
G04 Scale: 100 percent, Rotated: No, Reflected: No *
G04 Dimensions in inches *
G04 leading zeros omitted , absolute positions ,3 integer and 6 decimal *
%FSLAX36Y36*%
%MOIN*%

%ADD10C,0.0100*%
%ADD16C,0.0090*%
%ADD17C,0.0079*%
%ADD18C,0.0236*%
%ADD19C,0.0098*%
%ADD20C,0.0060*%

%LPD*%
D20*
X138599Y-330399D02*
G01*
X155000Y-287500D01*
X138599Y-330399D02*
G01*
X122299Y-287500D01*
X148900Y-301799D02*
G01*
X128400Y-301799D01*
X108800Y-330399D02*
G01*
X92399Y-310000D01*
X92399Y-287500D01*
X76000Y-330399D02*
G01*
X92399Y-310000D01*
X62500Y-305900D02*
G01*
X25699Y-305900D01*
X8100Y-330399D02*
G01*
X-14399Y-330399D01*
X-2100Y-314000D01*
X-8199Y-314000D01*
X-12299Y-311999D01*
X-14399Y-310000D01*
X-16400Y-303800D01*
X-16400Y-299699D01*
X-14399Y-293600D01*
X-10299Y-289499D01*
X-4099Y-287500D01*
X1999Y-287500D01*
X8100Y-289499D01*
X10200Y-291500D01*
X12200Y-295599D01*
X-29899Y-305900D02*
G01*
X-66700Y-305900D01*
X-90500Y-330399D02*
G01*
X-84300Y-328400D01*
X-82299Y-324299D01*
X-82299Y-320199D01*
X-84300Y-316100D01*
X-88400Y-314000D01*
X-96599Y-311999D01*
X-102700Y-310000D01*
X-106800Y-305900D01*
X-108900Y-301799D01*
X-108900Y-295599D01*
X-106800Y-291500D01*
X-104799Y-289499D01*
X-98599Y-287500D01*
X-90500Y-287500D01*
X-84300Y-289499D01*
X-82299Y-291500D01*
X-80200Y-295599D01*
X-80200Y-301799D01*
X-82299Y-305900D01*
X-86400Y-310000D01*
X-92500Y-311999D01*
X-100699Y-314000D01*
X-104799Y-316100D01*
X-106800Y-320199D01*
X-106800Y-324299D01*
X-104799Y-328400D01*
X-98599Y-330399D01*
X-90500Y-330399D01*
X-148999Y-316100D02*
G01*
X-146899Y-310000D01*
X-142799Y-305900D01*
X-136700Y-303800D01*
X-134600Y-303800D01*
X-128500Y-305900D01*
X-124399Y-310000D01*
X-122399Y-316100D01*
X-122399Y-318099D01*
X-124399Y-324299D01*
X-128500Y-328400D01*
X-134600Y-330399D01*
X-136700Y-330399D01*
X-142799Y-328400D01*
X-146899Y-324299D01*
X-148999Y-316100D01*
X-148999Y-305900D01*
X-146899Y-295599D01*
X-142799Y-289499D01*
X-136700Y-287500D01*
X-132600Y-287500D01*
X-126499Y-289499D01*
X-124399Y-293600D01*
X-162500Y-322199D02*
G01*
X-166499Y-324299D01*
X-172700Y-330399D01*
X-172700Y-287500D01*
X-188199Y-320199D02*
G01*
X-188199Y-322199D01*
X-190299Y-326300D01*
X-192299Y-328400D01*
X-196400Y-330399D01*
X-204600Y-330399D01*
X-208699Y-328400D01*
X-210699Y-326300D01*
X-212799Y-322199D01*
X-212799Y-318099D01*
X-210699Y-314000D01*
X-206599Y-307899D01*
X-186199Y-287500D01*
X-214799Y-287500D01*
X860399Y318600D02*
G01*
X817500Y335000D01*
X860399Y318600D02*
G01*
X817500Y302300D01*
X831800Y328899D02*
G01*
X831800Y308400D01*
X860399Y288800D02*
G01*
X840000Y272399D01*
X817500Y272399D01*
X860399Y255999D02*
G01*
X840000Y272399D01*
X835900Y242500D02*
G01*
X835900Y205700D01*
X860399Y188099D02*
G01*
X860399Y165599D01*
X843999Y177899D01*
X843999Y171799D01*
X841999Y167699D01*
X840000Y165599D01*
X833800Y163600D01*
X829700Y163600D01*
X823599Y165599D01*
X819499Y169699D01*
X817500Y175900D01*
X817500Y181999D01*
X819499Y188099D01*
X821499Y190199D01*
X825600Y192199D01*
X835900Y150100D02*
G01*
X835900Y113299D01*
X860399Y89499D02*
G01*
X858400Y95700D01*
X854300Y97699D01*
X850200Y97699D01*
X846099Y95700D01*
X843999Y91599D01*
X841999Y83400D01*
X840000Y77300D01*
X835900Y73200D01*
X831800Y71100D01*
X825600Y71100D01*
X821499Y73200D01*
X819499Y75199D01*
X817500Y81399D01*
X817500Y89499D01*
X819499Y95700D01*
X821499Y97699D01*
X825600Y99800D01*
X831800Y99800D01*
X835900Y97699D01*
X840000Y93600D01*
X841999Y87500D01*
X843999Y79299D01*
X846099Y75199D01*
X850200Y73200D01*
X854300Y73200D01*
X858400Y75199D01*
X860399Y81399D01*
X860399Y89499D01*
X846099Y30999D02*
G01*
X840000Y33099D01*
X835900Y37199D01*
X833800Y43299D01*
X833800Y45399D01*
X835900Y51500D01*
X840000Y55599D01*
X846099Y57600D01*
X848100Y57600D01*
X854300Y55599D01*
X858400Y51500D01*
X860399Y45399D01*
X860399Y43299D01*
X858400Y37199D01*
X854300Y33099D01*
X846099Y30999D01*
X835900Y30999D01*
X825600Y33099D01*
X819499Y37199D01*
X817500Y43299D01*
X817500Y47399D01*
X819499Y53499D01*
X823599Y55599D01*
X852200Y17500D02*
G01*
X854300Y13499D01*
X860399Y7300D01*
X817500Y7300D01*
X860399Y-18499D02*
G01*
X858400Y-12300D01*
X852200Y-8200D01*
X841999Y-6199D01*
X835900Y-6199D01*
X825600Y-8200D01*
X819499Y-12300D01*
X817500Y-18499D01*
X817500Y-22500D01*
X819499Y-28699D01*
X825600Y-32800D01*
X835900Y-34800D01*
X841999Y-34800D01*
X852200Y-32800D01*
X858400Y-28699D01*
X860399Y-22500D01*
X860399Y-18499D01*
D16*
X640000Y120000D02*
G01*
X-760000Y120000D01*
X-760000Y-380000D01*
X640000Y-380000D01*
X640000Y120000D01*
D17*
X-960787Y394331D02*
G01*
X-760787Y394331D01*
X-860000Y394331D02*
G01*
X-660000Y394331D01*
X-460000Y394331D01*
X-260000Y394331D01*
X-60000Y394331D01*
X956535Y394331D01*
X956535Y315000D01*
X956535Y143150D01*
X-1060787Y-24331D02*
G01*
X-1060787Y185000D01*
X-1060787Y394331D01*
X-851457Y394331D01*
X-1060000Y-115000D02*
G01*
X-860000Y-115000D01*
X-1060000Y-115000D01*
X-860000Y-115000D01*
X-660000Y-115000D01*
X-460000Y-115000D01*
X-260000Y-115000D01*
X-60000Y-115000D01*
X956535Y-115000D01*
X956535Y-35000D01*
X956535Y93150D01*
X-1060787Y94331D02*
G01*
X-1060787Y-115000D01*
X-851457Y-115000D01*
X-960787Y-115000D02*
G01*
X-760787Y-115000D01*
D18*
G75*
G01*
X929000Y355000D02*
G03*
X929000Y354800I-11811J-100D01*
D19*
G75*
G01*
X946100Y440000D02*
G03*
X946100Y439900I-4921J-50D01*
D17*
G75*
G01*
X956500Y143100D02*
G03*
X956500Y93100I0J-25000D01*
D10*
G75*
G01
X600000Y90000D02*
G03X600000Y90000I-10000J0D01*
M02*
