M48
INCH,LZ
;FILE_FORMAT=2:4
;TYPE=PLATED
;Layer: Drill PTH
;EasyEDA v6.4.19.5, 2021-04-22T06:46:41+01:00
;b9d1eac69de14e0994291468f16b4c20,70d0fae58ee04a8b949032da60bbe542,10
;Gerber Generator version 0.2
;Holesize 1 = 0.0280 inch
T01C0.0280
;Holesize 2 = 0.0350 inch
T02C0.0350
%
G05
G90
T01
X005900Y001700
X004900Y001700
X003900Y001700
X002900Y001700
X001900Y001700
X000900Y001700
X-000100Y001700
X-001100Y001700
X-002100Y001700
X-003100Y001700
X-004100Y001700
X-005100Y001700
X-006100Y001700
X-007100Y001700
X-007100Y-004300
X-006100Y-004300
X-005100Y-004300
X-004100Y-004300
X-003100Y-004300
X-002100Y-004300
X-001100Y-004300
X-000100Y-004300
X000900Y-004300
X001900Y-004300
X002900Y-004300
X003900Y-004300
X004900Y-004300
X005900Y-004300
T02
X-009100Y004400
X-007100Y004400
X-008100Y004400
X-003100Y004400
X000900Y004400
X001900Y004400
X002900Y004400
X003900Y004400
X004900Y004400
X005900Y004400
X006900Y004400
X007900Y004400
X008900Y004400
X-000100Y004400
X-002100Y004400
X-001100Y004400
X-004100Y004400
X-006100Y004400
X-005100Y004400
X-010100Y004400
X007900Y-001600
X008900Y-001600
X006900Y-001600
X005900Y-001600
X-006100Y-001600
X-005100Y-001600
X-004100Y-001600
X-003100Y-001600
X-007100Y-001600
X-008100Y-001600
X-009100Y-001600
X-010100Y-001600
X000900Y-001600
X-000100Y-001600
X-001100Y-001600
X-002100Y-001600
X001900Y-001600
X002900Y-001600
X003900Y-001600
X004900Y-001600
M30
