G04 Layer: BottomLayer*
G04 EasyEDA v6.4.19.5, 2021-04-22T10:42:41+01:00*
G04 4afba9deae2242d5b81e82046c6002c8,70d0fae58ee04a8b949032da60bbe542,10*
G04 Gerber Generator version 0.2*
G04 Scale: 100 percent, Rotated: No, Reflected: No *
G04 Dimensions in inches *
G04 leading zeros omitted , absolute positions ,3 integer and 6 decimal *
%FSLAX36Y36*%
%MOIN*%

%ADD10C,0.0100*%
%ADD11C,0.0300*%
%ADD12R,0.0550X0.0550*%
%ADD13C,0.0550*%
%ADD14R,0.0591X0.0787*%
%ADD15C,0.0600*%
%ADD16C,0.0591*%

%LPD*%
D10*
X210799Y108299D02*
G01*
X163199Y108299D01*
X130000Y141500D01*
X130000Y305000D01*
X-25000Y460000D01*
X780000Y-440000D02*
G01*
X539399Y-199400D01*
X539399Y274699D01*
X312100Y501900D01*
X216899Y501900D01*
X175000Y460000D01*
X75000Y460000D02*
G01*
X236899Y298099D01*
X236899Y-19699D01*
X635699Y-418499D01*
X635699Y-463699D01*
X663000Y-490900D01*
X829099Y-490900D01*
X880000Y-440000D01*
X-420000Y160000D02*
G01*
X-420000Y365000D01*
X-325000Y460000D01*
X-520000Y160000D02*
G01*
X-520000Y365000D01*
X-425000Y460000D01*
X-620000Y160000D02*
G01*
X-620000Y365000D01*
X-525000Y460000D01*
X-720000Y160000D02*
G01*
X-720000Y365000D01*
X-625000Y460000D01*
X-820000Y160000D02*
G01*
X-820000Y365000D01*
X-725000Y460000D01*
X-920000Y160000D02*
G01*
X-920000Y365000D01*
X-825000Y460000D01*
X-1020000Y160000D02*
G01*
X-1068000Y208000D01*
X-1068000Y478299D01*
X-1045799Y500500D01*
X-965500Y500500D01*
X-925000Y460000D01*
X-1020000Y-440000D02*
G01*
X-976199Y-396300D01*
X-976199Y411199D01*
X-1025000Y460000D01*
X-920000Y-440000D02*
G01*
X-970900Y-490900D01*
X-1037200Y-490900D01*
X-1068500Y-459600D01*
X-1068500Y-183499D01*
X-1025000Y-140000D01*
X-820000Y-440000D02*
G01*
X-820000Y-245000D01*
X-925000Y-140000D01*
X-620000Y-440000D02*
G01*
X-620000Y-345000D01*
X-825000Y-140000D01*
X-420000Y-440000D02*
G01*
X-720000Y-140000D01*
X-725000Y-140000D01*
X-320000Y-440000D02*
G01*
X-620000Y-140000D01*
X-625000Y-140000D01*
X-220000Y-440000D02*
G01*
X-520000Y-140000D01*
X-525000Y-140000D01*
X-120000Y-440000D02*
G01*
X-420000Y-140000D01*
X-425000Y-140000D01*
X-20000Y-440000D02*
G01*
X-320000Y-140000D01*
X-325000Y-140000D01*
X80000Y-440000D02*
G01*
X-220000Y-140000D01*
X-225000Y-140000D01*
X180000Y-440000D02*
G01*
X-120000Y-140000D01*
X-125000Y-140000D01*
X280000Y-440000D02*
G01*
X-20000Y-140000D01*
X-25000Y-140000D01*
X380000Y-440000D02*
G01*
X80000Y-140000D01*
X75000Y-140000D01*
X480000Y-440000D02*
G01*
X180000Y-140000D01*
X175000Y-140000D01*
X580000Y-440000D02*
G01*
X280000Y-140000D01*
X275000Y-140000D01*
X275000Y421399D02*
G01*
X438100Y258400D01*
X438100Y-198099D01*
X680000Y-440000D01*
X275000Y460000D02*
G01*
X275000Y421399D01*
D12*
G01*
X275000Y460000D03*
D13*
G01*
X175000Y460000D03*
G01*
X75000Y460000D03*
G01*
X-25000Y460000D03*
G01*
X-125000Y460000D03*
G01*
X-225000Y460000D03*
G01*
X-325000Y460000D03*
G01*
X-425000Y460000D03*
G01*
X-525000Y460000D03*
G01*
X-625000Y460000D03*
G01*
X-725000Y460000D03*
G01*
X-825000Y460000D03*
G01*
X-925000Y460000D03*
G01*
X-1025000Y460000D03*
G01*
X-1025000Y-140000D03*
G01*
X-925000Y-140000D03*
G01*
X-825000Y-140000D03*
G01*
X-725000Y-140000D03*
G01*
X-625000Y-140000D03*
G01*
X-525000Y-140000D03*
G01*
X-425000Y-140000D03*
G01*
X-325000Y-140000D03*
G01*
X-225000Y-140000D03*
G01*
X-125000Y-140000D03*
G01*
X-25000Y-140000D03*
G01*
X75000Y-140000D03*
G01*
X175000Y-140000D03*
G01*
X275000Y-140000D03*
D14*
G01*
X880000Y160000D03*
D11*
G01*
X210799Y108299D03*
D15*
X-920000Y150630D02*
G01*
X-920000Y169369D01*
X-720000Y150630D02*
G01*
X-720000Y169369D01*
X-820000Y150630D02*
G01*
X-820000Y169369D01*
X-320000Y150630D02*
G01*
X-320000Y169369D01*
D16*
X80000Y169843D02*
G01*
X80000Y150156D01*
X180000Y169843D02*
G01*
X180000Y150156D01*
X280000Y169843D02*
G01*
X280000Y150156D01*
X380000Y169843D02*
G01*
X380000Y150156D01*
X480000Y169843D02*
G01*
X480000Y150156D01*
X580000Y169843D02*
G01*
X580000Y150156D01*
X680000Y169843D02*
G01*
X680000Y150156D01*
X780000Y169843D02*
G01*
X780000Y150156D01*
D15*
X-20000Y169369D02*
G01*
X-20000Y150630D01*
X-220000Y169369D02*
G01*
X-220000Y150630D01*
D16*
X-120000Y169843D02*
G01*
X-120000Y150156D01*
D15*
X-420000Y169369D02*
G01*
X-420000Y150630D01*
X-620000Y150630D02*
G01*
X-620000Y169369D01*
X-520000Y150630D02*
G01*
X-520000Y169369D01*
X-1020000Y150630D02*
G01*
X-1020000Y169369D01*
X780000Y-430630D02*
G01*
X780000Y-449369D01*
X880000Y-430630D02*
G01*
X880000Y-449369D01*
X680000Y-430630D02*
G01*
X680000Y-449369D01*
X580000Y-430630D02*
G01*
X580000Y-449369D01*
X-620000Y-430630D02*
G01*
X-620000Y-449369D01*
X-520000Y-430630D02*
G01*
X-520000Y-449369D01*
X-420000Y-430630D02*
G01*
X-420000Y-449369D01*
X-320000Y-430630D02*
G01*
X-320000Y-449369D01*
X-720000Y-430630D02*
G01*
X-720000Y-449369D01*
X-820000Y-430630D02*
G01*
X-820000Y-449369D01*
X-920000Y-430630D02*
G01*
X-920000Y-449369D01*
X-1020000Y-430630D02*
G01*
X-1020000Y-449369D01*
X80000Y-430630D02*
G01*
X80000Y-449369D01*
X-20000Y-430630D02*
G01*
X-20000Y-449369D01*
X-120000Y-430630D02*
G01*
X-120000Y-449369D01*
X-220000Y-430630D02*
G01*
X-220000Y-449369D01*
X180000Y-430630D02*
G01*
X180000Y-449369D01*
X280000Y-430630D02*
G01*
X280000Y-449369D01*
X380000Y-430630D02*
G01*
X380000Y-449369D01*
X480000Y-430630D02*
G01*
X480000Y-449369D01*
M02*
