G04 Layer: TopLayer*
G04 EasyEDA v6.4.19.5, 2021-04-22T10:42:41+01:00*
G04 c08531f617d74a989658789653698faa,70d0fae58ee04a8b949032da60bbe542,10*
G04 Gerber Generator version 0.2*
G04 Scale: 100 percent, Rotated: No, Reflected: No *
G04 Dimensions in inches *
G04 leading zeros omitted , absolute positions ,3 integer and 6 decimal *
%FSLAX36Y36*%
%MOIN*%

%ADD10C,0.0100*%
%ADD11C,0.0300*%
%ADD12R,0.0550X0.0550*%
%ADD13C,0.0550*%
%ADD14R,0.0591X0.0787*%
%ADD15C,0.0600*%
%ADD16C,0.0591*%

%LPD*%
D10*
X680000Y160000D02*
G01*
X628299Y108299D01*
X210799Y108299D01*
X580000Y160000D02*
G01*
X342299Y397699D01*
X-62700Y397699D01*
X-125000Y460000D01*
X-225000Y460000D02*
G01*
X-186400Y498600D01*
X-102500Y498600D01*
X-75000Y471100D01*
X-75000Y453499D01*
X-42899Y421399D01*
X588100Y421399D01*
X839399Y170100D01*
X839399Y160000D01*
X880000Y160000D02*
G01*
X839399Y160000D01*
D12*
G01*
X275000Y460000D03*
D13*
G01*
X175000Y460000D03*
G01*
X75000Y460000D03*
G01*
X-25000Y460000D03*
G01*
X-125000Y460000D03*
G01*
X-225000Y460000D03*
G01*
X-325000Y460000D03*
G01*
X-425000Y460000D03*
G01*
X-525000Y460000D03*
G01*
X-625000Y460000D03*
G01*
X-725000Y460000D03*
G01*
X-825000Y460000D03*
G01*
X-925000Y460000D03*
G01*
X-1025000Y460000D03*
G01*
X-1025000Y-140000D03*
G01*
X-925000Y-140000D03*
G01*
X-825000Y-140000D03*
G01*
X-725000Y-140000D03*
G01*
X-625000Y-140000D03*
G01*
X-525000Y-140000D03*
G01*
X-425000Y-140000D03*
G01*
X-325000Y-140000D03*
G01*
X-225000Y-140000D03*
G01*
X-125000Y-140000D03*
G01*
X-25000Y-140000D03*
G01*
X75000Y-140000D03*
G01*
X175000Y-140000D03*
G01*
X275000Y-140000D03*
D14*
G01*
X880000Y160000D03*
D11*
G01*
X210799Y108299D03*
D15*
X-920000Y150630D02*
G01*
X-920000Y169369D01*
X-720000Y150630D02*
G01*
X-720000Y169369D01*
X-820000Y150630D02*
G01*
X-820000Y169369D01*
X-320000Y150630D02*
G01*
X-320000Y169369D01*
D16*
X80000Y169843D02*
G01*
X80000Y150156D01*
X180000Y169843D02*
G01*
X180000Y150156D01*
X280000Y169843D02*
G01*
X280000Y150156D01*
X380000Y169843D02*
G01*
X380000Y150156D01*
X480000Y169843D02*
G01*
X480000Y150156D01*
X580000Y169843D02*
G01*
X580000Y150156D01*
X680000Y169843D02*
G01*
X680000Y150156D01*
X780000Y169843D02*
G01*
X780000Y150156D01*
D15*
X-20000Y169369D02*
G01*
X-20000Y150630D01*
X-220000Y169369D02*
G01*
X-220000Y150630D01*
D16*
X-120000Y169843D02*
G01*
X-120000Y150156D01*
D15*
X-420000Y169369D02*
G01*
X-420000Y150630D01*
X-620000Y150630D02*
G01*
X-620000Y169369D01*
X-520000Y150630D02*
G01*
X-520000Y169369D01*
X-1020000Y150630D02*
G01*
X-1020000Y169369D01*
X780000Y-430630D02*
G01*
X780000Y-449369D01*
X880000Y-430630D02*
G01*
X880000Y-449369D01*
X680000Y-430630D02*
G01*
X680000Y-449369D01*
X580000Y-430630D02*
G01*
X580000Y-449369D01*
X-620000Y-430630D02*
G01*
X-620000Y-449369D01*
X-520000Y-430630D02*
G01*
X-520000Y-449369D01*
X-420000Y-430630D02*
G01*
X-420000Y-449369D01*
X-320000Y-430630D02*
G01*
X-320000Y-449369D01*
X-720000Y-430630D02*
G01*
X-720000Y-449369D01*
X-820000Y-430630D02*
G01*
X-820000Y-449369D01*
X-920000Y-430630D02*
G01*
X-920000Y-449369D01*
X-1020000Y-430630D02*
G01*
X-1020000Y-449369D01*
X80000Y-430630D02*
G01*
X80000Y-449369D01*
X-20000Y-430630D02*
G01*
X-20000Y-449369D01*
X-120000Y-430630D02*
G01*
X-120000Y-449369D01*
X-220000Y-430630D02*
G01*
X-220000Y-449369D01*
X180000Y-430630D02*
G01*
X180000Y-449369D01*
X280000Y-430630D02*
G01*
X280000Y-449369D01*
X380000Y-430630D02*
G01*
X380000Y-449369D01*
X480000Y-430630D02*
G01*
X480000Y-449369D01*
M02*
