G04 Layer: TopSolderMaskLayer*
G04 EasyEDA v6.4.19.5, 2021-04-22T06:46:41+01:00*
G04 b9d1eac69de14e0994291468f16b4c20,70d0fae58ee04a8b949032da60bbe542,10*
G04 Gerber Generator version 0.2*
G04 Scale: 100 percent, Rotated: No, Reflected: No *
G04 Dimensions in inches *
G04 leading zeros omitted , absolute positions ,3 integer and 6 decimal *
%FSLAX36Y36*%
%MOIN*%

%ADD21C,0.0680*%
%ADD22C,0.0671*%
%ADD24C,0.0630*%

%LPD*%
D21*
X-910000Y430630D02*
G01*
X-910000Y449369D01*
X-710000Y430630D02*
G01*
X-710000Y449369D01*
X-810000Y430630D02*
G01*
X-810000Y449369D01*
X-310000Y430630D02*
G01*
X-310000Y449369D01*
D22*
X90000Y449843D02*
G01*
X90000Y430156D01*
X190000Y449843D02*
G01*
X190000Y430156D01*
X290000Y449843D02*
G01*
X290000Y430156D01*
X390000Y449843D02*
G01*
X390000Y430156D01*
X490000Y449843D02*
G01*
X490000Y430156D01*
X590000Y449843D02*
G01*
X590000Y430156D01*
X690000Y449843D02*
G01*
X690000Y430156D01*
X790000Y449843D02*
G01*
X790000Y430156D01*
D21*
X-10000Y449369D02*
G01*
X-10000Y430630D01*
X-210000Y449369D02*
G01*
X-210000Y430630D01*
D22*
X-110000Y449843D02*
G01*
X-110000Y430156D01*
D21*
X-410000Y449369D02*
G01*
X-410000Y430630D01*
X-610000Y430630D02*
G01*
X-610000Y449369D01*
X-510000Y430630D02*
G01*
X-510000Y449369D01*
X-1010000Y430630D02*
G01*
X-1010000Y449369D01*
X790000Y-150630D02*
G01*
X790000Y-169369D01*
X890000Y-150630D02*
G01*
X890000Y-169369D01*
X690000Y-150630D02*
G01*
X690000Y-169369D01*
X590000Y-150630D02*
G01*
X590000Y-169369D01*
X-610000Y-150630D02*
G01*
X-610000Y-169369D01*
X-510000Y-150630D02*
G01*
X-510000Y-169369D01*
X-410000Y-150630D02*
G01*
X-410000Y-169369D01*
X-310000Y-150630D02*
G01*
X-310000Y-169369D01*
X-710000Y-150630D02*
G01*
X-710000Y-169369D01*
X-810000Y-150630D02*
G01*
X-810000Y-169369D01*
X-910000Y-150630D02*
G01*
X-910000Y-169369D01*
X-1010000Y-150630D02*
G01*
X-1010000Y-169369D01*
X90000Y-150630D02*
G01*
X90000Y-169369D01*
X-10000Y-150630D02*
G01*
X-10000Y-169369D01*
X-110000Y-150630D02*
G01*
X-110000Y-169369D01*
X-210000Y-150630D02*
G01*
X-210000Y-169369D01*
X190000Y-150630D02*
G01*
X190000Y-169369D01*
X290000Y-150630D02*
G01*
X290000Y-169369D01*
X390000Y-150630D02*
G01*
X390000Y-169369D01*
X490000Y-150630D02*
G01*
X490000Y-169369D01*
G36*
X558500Y138499D02*
G01*
X558500Y201500D01*
X621499Y201500D01*
X621499Y138499D01*
G37*
D24*
G01*
X490000Y170000D03*
G01*
X390000Y170000D03*
G01*
X290000Y170000D03*
G01*
X190000Y170000D03*
G01*
X90000Y170000D03*
G01*
X-10000Y170000D03*
G01*
X-110000Y170000D03*
G01*
X-210000Y170000D03*
G01*
X-310000Y170000D03*
G01*
X-410000Y170000D03*
G01*
X-510000Y170000D03*
G01*
X-610000Y170000D03*
G01*
X-710000Y170000D03*
G01*
X-710000Y-430000D03*
G01*
X-610000Y-430000D03*
G01*
X-510000Y-430000D03*
G01*
X-410000Y-430000D03*
G01*
X-310000Y-430000D03*
G01*
X-210000Y-430000D03*
G01*
X-110000Y-430000D03*
G01*
X-10000Y-430000D03*
G01*
X90000Y-430000D03*
G01*
X190000Y-430000D03*
G01*
X290000Y-430000D03*
G01*
X390000Y-430000D03*
G01*
X490000Y-430000D03*
G01*
X590000Y-430000D03*
G36*
X856499Y396599D02*
G01*
X856499Y483400D01*
X923500Y483400D01*
X923500Y396599D01*
G37*
M02*
