M48
INCH,LZ
;FILE_FORMAT=2:4
;TYPE=PLATED
;Layer: Drill PTH
;EasyEDA v6.4.19.5, 2021-04-22T06:46:41+01:00
;125c642ea7bf4c30bcee29ea33573556,70d0fae58ee04a8b949032da60bbe542,10
;Gerber Generator version 0.2
;Holesize 1 = 0.0240 inch
T01C0.0240
;Holesize 2 = 0.0280 inch
T02C0.0280
;Holesize 3 = 0.0350 inch
T03C0.0350
%
G05
G90
T01
X008425Y-003695
T02
X006050Y004700
X005050Y004700
X004050Y004700
X003050Y004700
X002050Y004700
X001050Y004700
X000050Y004700
X-000950Y004700
X-001950Y004700
X-002950Y004700
X-003950Y004700
X-004950Y004700
X-005950Y004700
X-006950Y004700
X-006950Y-001300
X-005950Y-001300
X-004950Y-001300
X-003950Y-001300
X-002950Y-001300
X-001950Y-001300
X-000950Y-001300
X000050Y-001300
X001050Y-001300
X002050Y-001300
X003050Y-001300
X004050Y-001300
X005050Y-001300
X006050Y-001300
T03
X-008950Y001800
X-006950Y001800
X-007950Y001800
X-002950Y001800
X001050Y001800
X002050Y001800
X003050Y001800
X004050Y001800
X005050Y001800
X006050Y001800
X007050Y001800
X008050Y001800
X009050Y001800
X000050Y001800
X-001950Y001800
X-000950Y001800
X-003950Y001800
X-005950Y001800
X-004950Y001800
X-009950Y001800
X008050Y-004200
X009050Y-004200
X007050Y-004200
X006050Y-004200
X-005950Y-004200
X-004950Y-004200
X-003950Y-004200
X-002950Y-004200
X-006950Y-004200
X-007950Y-004200
X-008950Y-004200
X-009950Y-004200
X001050Y-004200
X000050Y-004200
X-000950Y-004200
X-001950Y-004200
X002050Y-004200
X003050Y-004200
X004050Y-004200
X005050Y-004200
M30
