G04 Layer: BottomLayer*
G04 EasyEDA v6.4.19.5, 2021-04-22T06:46:41+01:00*
G04 125c642ea7bf4c30bcee29ea33573556,70d0fae58ee04a8b949032da60bbe542,10*
G04 Gerber Generator version 0.2*
G04 Scale: 100 percent, Rotated: No, Reflected: No *
G04 Dimensions in inches *
G04 leading zeros omitted , absolute positions ,3 integer and 6 decimal *
%FSLAX36Y36*%
%MOIN*%

%ADD10C,0.0100*%
%ADD11C,0.0300*%
%ADD12R,0.0550X0.0550*%
%ADD13C,0.0550*%
%ADD14R,0.0591X0.0787*%
%ADD15C,0.0600*%
%ADD16C,0.0591*%

%LPD*%
D10*
X605000Y-420000D02*
G01*
X605000Y-130000D01*
X505000Y-420000D02*
G01*
X505000Y-130000D01*
X405000Y-420000D02*
G01*
X405000Y-130000D01*
X305000Y-420000D02*
G01*
X305000Y-130000D01*
X205000Y-420000D02*
G01*
X205000Y-130000D01*
X105000Y-420000D02*
G01*
X105000Y-130000D01*
X5000Y-420000D02*
G01*
X5000Y-130000D01*
X-95000Y-420000D02*
G01*
X-95000Y-130000D01*
X-195000Y-420000D02*
G01*
X-195000Y-130000D01*
X-295000Y-420000D02*
G01*
X-295000Y-130000D01*
X-395000Y-420000D02*
G01*
X-395000Y-130000D01*
X-595000Y-420000D02*
G01*
X-495000Y-320000D01*
X-495000Y-130000D01*
X-795000Y-420000D02*
G01*
X-595000Y-220000D01*
X-595000Y-130000D01*
X-895000Y-420000D02*
G01*
X-695000Y-220000D01*
X-695000Y-130000D01*
X-995000Y-420000D02*
G01*
X-745000Y-170000D01*
X-745000Y420000D01*
X-695000Y470000D01*
X-695000Y180000D02*
G01*
X-449902Y425100D01*
X-339902Y425100D01*
X-295000Y470000D01*
X-595000Y180000D02*
G01*
X-366000Y408998D01*
X-256000Y408998D01*
X-195000Y470000D01*
X-495000Y180000D02*
G01*
X-282100Y392800D01*
X-172100Y392800D01*
X-95000Y470000D01*
X-395000Y180000D02*
G01*
X-243599Y331298D01*
X-133599Y331298D01*
X5000Y470000D01*
X905000Y-420000D02*
G01*
X850801Y-474198D01*
X688500Y-474198D01*
X663900Y-449600D01*
X663900Y-61799D01*
X550298Y51799D01*
X550298Y324699D01*
X405000Y470000D01*
X805000Y-420000D02*
G01*
X805000Y-70100D01*
X646899Y88000D01*
X646899Y328101D01*
X505000Y470000D01*
X605000Y431399D02*
G01*
X624301Y431399D01*
X848397Y207300D01*
X848397Y-363600D01*
X842500Y-369499D01*
X605000Y470000D02*
G01*
X605000Y431399D01*
D12*
G01*
X605000Y470000D03*
D13*
G01*
X505000Y470000D03*
G01*
X405000Y470000D03*
G01*
X305000Y470000D03*
G01*
X205000Y470000D03*
G01*
X105000Y470000D03*
G01*
X5000Y470000D03*
G01*
X-95000Y470000D03*
G01*
X-195000Y470000D03*
G01*
X-295000Y470000D03*
G01*
X-395000Y470000D03*
G01*
X-495000Y470000D03*
G01*
X-595000Y470000D03*
G01*
X-695000Y470000D03*
G01*
X-695000Y-130000D03*
G01*
X-595000Y-130000D03*
G01*
X-495000Y-130000D03*
G01*
X-395000Y-130000D03*
G01*
X-295000Y-130000D03*
G01*
X-195000Y-130000D03*
G01*
X-95000Y-130000D03*
G01*
X5000Y-130000D03*
G01*
X105000Y-130000D03*
G01*
X205000Y-130000D03*
G01*
X305000Y-130000D03*
G01*
X405000Y-130000D03*
G01*
X505000Y-130000D03*
G01*
X605000Y-130000D03*
D14*
G01*
X905000Y180000D03*
D11*
G01*
X842500Y-369499D03*
D15*
X-895000Y170630D02*
G01*
X-895000Y189369D01*
X-695000Y170630D02*
G01*
X-695000Y189369D01*
X-795000Y170630D02*
G01*
X-795000Y189369D01*
X-295000Y170630D02*
G01*
X-295000Y189369D01*
D16*
X105000Y189843D02*
G01*
X105000Y170156D01*
X205000Y189843D02*
G01*
X205000Y170156D01*
X305000Y189843D02*
G01*
X305000Y170156D01*
X405000Y189843D02*
G01*
X405000Y170156D01*
X505000Y189843D02*
G01*
X505000Y170156D01*
X605000Y189843D02*
G01*
X605000Y170156D01*
X705000Y189843D02*
G01*
X705000Y170156D01*
X805000Y189843D02*
G01*
X805000Y170156D01*
D15*
X5000Y189369D02*
G01*
X5000Y170630D01*
X-195000Y189369D02*
G01*
X-195000Y170630D01*
D16*
X-95000Y189843D02*
G01*
X-95000Y170156D01*
D15*
X-395000Y189369D02*
G01*
X-395000Y170630D01*
X-595000Y170630D02*
G01*
X-595000Y189369D01*
X-495000Y170630D02*
G01*
X-495000Y189369D01*
X-995000Y170630D02*
G01*
X-995000Y189369D01*
X805000Y-410630D02*
G01*
X805000Y-429369D01*
X905000Y-410630D02*
G01*
X905000Y-429369D01*
X705000Y-410630D02*
G01*
X705000Y-429369D01*
X605000Y-410630D02*
G01*
X605000Y-429369D01*
X-595000Y-410630D02*
G01*
X-595000Y-429369D01*
X-495000Y-410630D02*
G01*
X-495000Y-429369D01*
X-395000Y-410630D02*
G01*
X-395000Y-429369D01*
X-295000Y-410630D02*
G01*
X-295000Y-429369D01*
X-695000Y-410630D02*
G01*
X-695000Y-429369D01*
X-795000Y-410630D02*
G01*
X-795000Y-429369D01*
X-895000Y-410630D02*
G01*
X-895000Y-429369D01*
X-995000Y-410630D02*
G01*
X-995000Y-429369D01*
X105000Y-410630D02*
G01*
X105000Y-429369D01*
X5000Y-410630D02*
G01*
X5000Y-429369D01*
X-95000Y-410630D02*
G01*
X-95000Y-429369D01*
X-195000Y-410630D02*
G01*
X-195000Y-429369D01*
X205000Y-410630D02*
G01*
X205000Y-429369D01*
X305000Y-410630D02*
G01*
X305000Y-429369D01*
X405000Y-410630D02*
G01*
X405000Y-429369D01*
X505000Y-410630D02*
G01*
X505000Y-429369D01*
M02*
