M48
INCH,LZ
;FILE_FORMAT=2:4
;TYPE=PLATED
;Layer: Drill PTH
;EasyEDA v6.4.19.5, 2021-04-22T10:42:41+01:00
;4a910331c23249a18daeaba0e6d1c80b,70d0fae58ee04a8b949032da60bbe542,10
;Gerber Generator version 0.2
;Holesize 1 = 0.0240 inch
T01C0.0240
;Holesize 2 = 0.0280 inch
T02C0.0280
;Holesize 3 = 0.0350 inch
T03C0.0350
%
G05
G90
T01
X002108Y001083
T02
X002750Y004600
X001750Y004600
X000750Y004600
X-000250Y004600
X-001250Y004600
X-002250Y004600
X-003250Y004600
X-004250Y004600
X-005250Y004600
X-006250Y004600
X-007250Y004600
X-008250Y004600
X-009250Y004600
X-010250Y004600
X-010250Y-001400
X-009250Y-001400
X-008250Y-001400
X-007250Y-001400
X-006250Y-001400
X-005250Y-001400
X-004250Y-001400
X-003250Y-001400
X-002250Y-001400
X-001250Y-001400
X-000250Y-001400
X000750Y-001400
X001750Y-001400
X002750Y-001400
T03
X-009200Y001600
X-007200Y001600
X-008200Y001600
X-003200Y001600
X000800Y001600
X001800Y001600
X002800Y001600
X003800Y001600
X004800Y001600
X005800Y001600
X006800Y001600
X007800Y001600
X008800Y001600
X-000200Y001600
X-002200Y001600
X-001200Y001600
X-004200Y001600
X-006200Y001600
X-005200Y001600
X-010200Y001600
X007800Y-004400
X008800Y-004400
X006800Y-004400
X005800Y-004400
X-006200Y-004400
X-005200Y-004400
X-004200Y-004400
X-003200Y-004400
X-007200Y-004400
X-008200Y-004400
X-009200Y-004400
X-010200Y-004400
X000800Y-004400
X-000200Y-004400
X-001200Y-004400
X-002200Y-004400
X001800Y-004400
X002800Y-004400
X003800Y-004400
X004800Y-004400
M30
