G04 Layer: TopSilkLayer*
G04 EasyEDA v6.4.19.5, 2021-04-22T06:46:41+01:00*
G04 125c642ea7bf4c30bcee29ea33573556,70d0fae58ee04a8b949032da60bbe542,10*
G04 Gerber Generator version 0.2*
G04 Scale: 100 percent, Rotated: No, Reflected: No *
G04 Dimensions in inches *
G04 leading zeros omitted , absolute positions ,3 integer and 6 decimal *
%FSLAX36Y36*%
%MOIN*%

%ADD10C,0.0100*%
%ADD17C,0.0090*%
%ADD18C,0.0079*%
%ADD19C,0.0236*%
%ADD20C,0.0098*%
%ADD21C,0.0060*%

%LPD*%
D21*
X153599Y-30399D02*
G01*
X170000Y12500D01*
X153599Y-30399D02*
G01*
X137299Y12500D01*
X163900Y-1799D02*
G01*
X143400Y-1799D01*
X123800Y-30399D02*
G01*
X107399Y-10000D01*
X107399Y12500D01*
X91000Y-30399D02*
G01*
X107399Y-10000D01*
X77500Y-5900D02*
G01*
X40699Y-5900D01*
X23100Y-30399D02*
G01*
X600Y-30399D01*
X12899Y-14000D01*
X6800Y-14000D01*
X2700Y-11999D01*
X600Y-10000D01*
X-1400Y-3800D01*
X-1400Y300D01*
X600Y6399D01*
X4700Y10500D01*
X10900Y12500D01*
X16999Y12500D01*
X23100Y10500D01*
X25200Y8499D01*
X27200Y4400D01*
X-14899Y-5900D02*
G01*
X-51700Y-5900D01*
X-75500Y-30399D02*
G01*
X-69300Y-28400D01*
X-67299Y-24299D01*
X-67299Y-20199D01*
X-69300Y-16100D01*
X-73400Y-14000D01*
X-81599Y-11999D01*
X-87700Y-10000D01*
X-91800Y-5900D01*
X-93900Y-1799D01*
X-93900Y4400D01*
X-91800Y8499D01*
X-89799Y10500D01*
X-83599Y12500D01*
X-75500Y12500D01*
X-69300Y10500D01*
X-67299Y8499D01*
X-65200Y4400D01*
X-65200Y-1799D01*
X-67299Y-5900D01*
X-71400Y-10000D01*
X-77500Y-11999D01*
X-85699Y-14000D01*
X-89799Y-16100D01*
X-91800Y-20199D01*
X-91800Y-24299D01*
X-89799Y-28400D01*
X-83599Y-30399D01*
X-75500Y-30399D01*
X-133999Y-16100D02*
G01*
X-131899Y-10000D01*
X-127799Y-5900D01*
X-121700Y-3800D01*
X-119600Y-3800D01*
X-113500Y-5900D01*
X-109399Y-10000D01*
X-107399Y-16100D01*
X-107399Y-18099D01*
X-109399Y-24299D01*
X-113500Y-28400D01*
X-119600Y-30399D01*
X-121700Y-30399D01*
X-127799Y-28400D01*
X-131899Y-24299D01*
X-133999Y-16100D01*
X-133999Y-5900D01*
X-131899Y4400D01*
X-127799Y10500D01*
X-121700Y12500D01*
X-117600Y12500D01*
X-111499Y10500D01*
X-109399Y6399D01*
X-147500Y-22199D02*
G01*
X-151499Y-24299D01*
X-157700Y-30399D01*
X-157700Y12500D01*
X-173199Y-20199D02*
G01*
X-173199Y-22199D01*
X-175299Y-26300D01*
X-177299Y-28400D01*
X-181400Y-30399D01*
X-189600Y-30399D01*
X-193699Y-28400D01*
X-195699Y-26300D01*
X-197799Y-22199D01*
X-197799Y-18099D01*
X-195699Y-14000D01*
X-191599Y-7899D01*
X-171199Y12500D01*
X-199799Y12500D01*
X875399Y58600D02*
G01*
X832500Y75000D01*
X875399Y58600D02*
G01*
X832500Y42300D01*
X846800Y68899D02*
G01*
X846800Y48400D01*
X875399Y28800D02*
G01*
X855000Y12399D01*
X832500Y12399D01*
X875399Y-4000D02*
G01*
X855000Y12399D01*
X850900Y-17500D02*
G01*
X850900Y-54299D01*
X875399Y-71900D02*
G01*
X875399Y-94400D01*
X858999Y-82100D01*
X858999Y-88200D01*
X856999Y-92300D01*
X855000Y-94400D01*
X848800Y-96399D01*
X844700Y-96399D01*
X838599Y-94400D01*
X834499Y-90300D01*
X832500Y-84099D01*
X832500Y-78000D01*
X834499Y-71900D01*
X836499Y-69800D01*
X840600Y-67800D01*
X850900Y-109899D02*
G01*
X850900Y-146700D01*
X875399Y-170500D02*
G01*
X873400Y-164299D01*
X869300Y-162300D01*
X865200Y-162300D01*
X861099Y-164299D01*
X858999Y-168400D01*
X856999Y-176599D01*
X855000Y-182699D01*
X850900Y-186799D01*
X846800Y-188899D01*
X840600Y-188899D01*
X836499Y-186799D01*
X834499Y-184800D01*
X832500Y-178600D01*
X832500Y-170500D01*
X834499Y-164299D01*
X836499Y-162300D01*
X840600Y-160199D01*
X846800Y-160199D01*
X850900Y-162300D01*
X855000Y-166399D01*
X856999Y-172500D01*
X858999Y-180700D01*
X861099Y-184800D01*
X865200Y-186799D01*
X869300Y-186799D01*
X873400Y-184800D01*
X875399Y-178600D01*
X875399Y-170500D01*
X861099Y-229000D02*
G01*
X855000Y-226900D01*
X850900Y-222800D01*
X848800Y-216700D01*
X848800Y-214600D01*
X850900Y-208499D01*
X855000Y-204400D01*
X861099Y-202399D01*
X863100Y-202399D01*
X869300Y-204400D01*
X873400Y-208499D01*
X875399Y-214600D01*
X875399Y-216700D01*
X873400Y-222800D01*
X869300Y-226900D01*
X861099Y-229000D01*
X850900Y-229000D01*
X840600Y-226900D01*
X834499Y-222800D01*
X832500Y-216700D01*
X832500Y-212600D01*
X834499Y-206500D01*
X838599Y-204400D01*
X867200Y-242500D02*
G01*
X869300Y-246500D01*
X875399Y-252699D01*
X832500Y-252699D01*
X875399Y-278499D02*
G01*
X873400Y-272300D01*
X867200Y-268200D01*
X856999Y-266199D01*
X850900Y-266199D01*
X840600Y-268200D01*
X834499Y-272300D01*
X832500Y-278499D01*
X832500Y-282500D01*
X834499Y-288699D01*
X840600Y-292800D01*
X850900Y-294800D01*
X856999Y-294800D01*
X867200Y-292800D01*
X873400Y-288699D01*
X875399Y-282500D01*
X875399Y-278499D01*
D17*
X655000Y420000D02*
G01*
X-745000Y420000D01*
X-745000Y-80000D01*
X655000Y-80000D01*
X655000Y420000D01*
D18*
X-945787Y134331D02*
G01*
X-745787Y134331D01*
X-845000Y134331D02*
G01*
X-645000Y134331D01*
X-445000Y134331D01*
X-245000Y134331D01*
X-45000Y134331D01*
X971535Y134331D01*
X971535Y55000D01*
X971535Y-116849D01*
X-1045787Y-284331D02*
G01*
X-1045787Y-75000D01*
X-1045787Y134331D01*
X-836457Y134331D01*
X-1045000Y-375000D02*
G01*
X-845000Y-375000D01*
X-1045000Y-375000D01*
X-845000Y-375000D01*
X-645000Y-375000D01*
X-445000Y-375000D01*
X-245000Y-375000D01*
X-45000Y-375000D01*
X971535Y-375000D01*
X971535Y-295000D01*
X971535Y-166849D01*
X-1045787Y-165668D02*
G01*
X-1045787Y-375000D01*
X-836457Y-375000D01*
X-945787Y-375000D02*
G01*
X-745787Y-375000D01*
D19*
G75*
G01*
X944000Y95000D02*
G03*
X944000Y94800I-11811J-100D01*
D20*
G75*
G01*
X961100Y180000D02*
G03*
X961100Y179900I-4921J-50D01*
D18*
G75*
G01*
X971500Y-116900D02*
G03*
X971500Y-166900I0J-25000D01*
D10*
G75*
G01
X615000Y390000D02*
G03X615000Y390000I-10000J0D01*
M02*
